<svg xmlns="http://www.w3.org/2000/svg" xmlns:xlink="http://www.w3.org/1999/xlink" version="1.1" width="1000" height="1000" viewBox="0 0 1000 1000" xml:space="preserve">
<desc>Created with Fabric.js 3.5.0</desc>
<defs>
</defs>
<rect x="0" y="0" width="100%" height="100%" fill="#ffffff"/>
<g transform="matrix(61.4455 0 0 61.4455 503.291 453.533)" id="449971">
<path style="stroke: rgb(0,0,0); stroke-width: 18; stroke-dasharray: none; stroke-linecap: butt; stroke-dashoffset: 0; stroke-linejoin: miter; stroke-miterlimit: 4; is-custom-font: none; font-file-url: none; fill: rgb(0,120,215); fill-rule: nonzero; opacity: 1;" vector-effect="non-scaling-stroke" transform=" translate(-12.0284, -11.5949)" d="M 17 10.57 a 3 3 0 0 1 1.18 0.23 a 3.11 3.11 0 0 1 1 0.64 a 2.82 2.82 0 0 1 0.65 1 a 3 3 0 0 1 -1.6 3.95 a 3.08 3.08 0 0 1 -1.16 0.23 H 8 a 4 4 0 0 1 -1.56 -0.31 a 4 4 0 0 1 0 -7.38 A 4 4 0 0 1 8 8.57 a 3.54 3.54 0 0 1 0.73 0.07 a 4.63 4.63 0 0 1 0.72 -0.87 a 4.72 4.72 0 0 1 0.89 -0.65 a 4.58 4.58 0 0 1 1 -0.41 a 4.79 4.79 0 0 1 1.13 -0.14 a 4.37 4.37 0 0 1 1.64 0.3 a 4.55 4.55 0 0 1 1.36 0.84 a 4.39 4.39 0 0 1 1 1.27 A 4.66 4.66 0 0 1 17 10.57 Z" stroke-linecap="round"/>
</g>
</svg>